<?xml version="1.0" encoding="utf-8"?>
<!-- Generator: Adobe Illustrator 21.0.2, SVG Export Plug-In . SVG Version: 6.00 Build 0)  -->
<svg version="1.1" id="Layer_1" xmlns="http://www.w3.org/2000/svg" xmlns:xlink="http://www.w3.org/1999/xlink" x="0px" y="0px"
	 viewBox="0 0 636 190.2" style="enable-background:new 0 0 636 190.2;" xml:space="preserve">
<style type="text/css">
	.st0{fill:#97ABBB;}
</style>
<g id="DELETE_ME">
</g>
<g id="logo">
	<g>
		<g>
			<g>
				<path class="st0" d="M151.5,191L133.7,72.3l-1-8h-1.5v8v118.8h-25.7V2.1h33.9l16.4,86.4l1.3,10h0.5l1.3-10l16.4-86.4h33.9v189
					h-25.7V72.3v-8H182l-1,8l-17.7,118.8h-11.8V191z"/>
				<path class="st0" d="M251.7,191h-21.9V2h21.9C303.1,2.3,307,22.6,307,96.6C307,170.5,303.1,190.8,251.7,191z M257.6,163.3
					c19.5,0,20.8-4.9,20.6-66.8c0.3-61.7-1-66.6-20.6-66.6V163.3z"/>
				<path class="st0" d="M317.8,191L346.3,2h33.9l28.5,189h-27l-5-38.5H350l-5.1,38.6h-27.1V191z M364.8,63.5l-0.8-4.9h-1.5
					l-0.8,4.9l-8,59.6h19L364.8,63.5z"/>
				<path class="st0" d="M471.3,191l-14.4-79.7h-7.5V191h-27.7V2h27.8c32.9,0,47.3,19,47.3,54.5c0,18.8-4.9,35.7-15.4,42.9
					l17.7,91.5h-27.8V191z M449.4,29.6v56c7.7,0,20.6-1,20.6-28S457.1,29.6,449.4,29.6z"/>
				<path class="st0" d="M514.5,2.1h27.8v189h-27.8V2.1z"/>
				<path class="st0" d="M597.2,0C630.6-0.8,636,29,636,50.1l-27.2,2.6c0-12.6-1.8-27.2-11.1-27.2c-7.2,0.3-9.5,8-9.5,18.8
					c0,12.9,11.1,27.3,21.8,42.9c12.8,19.3,26,38,26,58.4c0,25.2-8.2,47.6-38.6,47.6c-35.7,0-40.4-27-40.4-55l27.2-2.6
					c0,15.7,1.5,32.1,13.1,32.1c8.2,0,11.3-9,11.3-20.8c0-12.6-11.8-27.8-22.4-43.7c-13.1-19.3-25.5-38.6-25.5-58.9
					C561,23.7,571,0.5,597.2,0z"/>
			</g>
			<g>
				<path class="st0" d="M0,190.2l28.5-189h33.9l28.5,189h-27l-5.1-38.6l-31.9,38.6L0,190.2L0,190.2z M47.1,62.6l-0.8-4.9h-1.5
					L44,62.6l-11.6,89l22.7-29.3L47.1,62.6z"/>
			</g>
		</g>
	</g>
</g>
</svg>
