<?xml version="1.0" encoding="UTF-8"?>
<svg width="26px" height="23px" viewBox="0 0 26 23" version="1.1" xmlns="http://www.w3.org/2000/svg" xmlns:xlink="http://www.w3.org/1999/xlink">
    <!-- Generator: Sketch 42 (36781) - http://www.bohemiancoding.com/sketch -->
    <title>Shape</title>
    <desc>Created with Sketch.</desc>
    <defs></defs>
    <g id="Welcome" stroke="none" stroke-width="1" fill="none" fill-rule="evenodd">
        <g id="Sign-in" transform="translate(-610.000000, -754.000000)" fill-rule="nonzero" fill="#FFFFFF">
            <g id="Group-4" transform="translate(579.000000, 219.000000)">
                <path d="M42.99,546.691859 L40.502,555.243859 C38.34,553.789859 35.988,552.590859 31,554.655859 L33.431,546.196859 L33.461,546.182859 C38.429,544.139859 40.835,545.230859 42.99,546.691859 Z M44.293,547.517859 L41.834,555.975859 C43.994,557.441859 46.387,558.608859 51.369,556.546859 L53.74,548.301859 C48.664,550.039859 46.453,548.971859 44.293,547.517859 Z M43.404,545.151859 L45.859,536.679859 C43.699,535.219859 41.303,534.048859 36.318,536.115859 L33.861,544.622859 C35.842,543.805859 37.406,543.431859 38.716,543.442859 C40.705,543.455859 42.103,544.276859 43.404,545.151859 Z M47.154,537.570859 L44.699,546.091859 C46.852,547.551859 49.456,548.748859 54.23,546.613859 L56.683,538.125859 C51.704,540.180859 49.31,539.027859 47.154,537.570859 Z" id="Shape"></path>
            </g>
        </g>
    </g>
</svg>