<svg xmlns="http://www.w3.org/2000/svg" xmlns:xlink="http://www.w3.org/1999/xlink" viewBox="0 0 80.11 84.34"><defs><style>.cls-1,.cls-2{fill:none;}.cls-1{clip-rule:evenodd;}.cls-3{clip-path:url(#clip-path);}.cls-4{clip-path:url(#clip-path-2);}.cls-5{fill:#39CB7A;}</style><clipPath id="clip-path" transform="translate(-321 -1879)"><path class="cls-1" d="M360.84,1884c-8.16.15-13.37,3.45-15.62,8.56-2.13,4.87-1.66,11-.11,17.4a5.2,5.2,0,0,0-1.26,4.25,9.34,9.34,0,0,0,1.69,4.74c.46.59,1.07.64,1.64.93a18.77,18.77,0,0,0,1.58,5.18,16.14,16.14,0,0,0,1.42,2.35,8.75,8.75,0,0,0,.77.71c0,2.15,0,3.95-.16,6.22-.57,1.37-1.89,2.47-4,3.54s-5.11,2.13-8,3.38a25.52,25.52,0,0,0-8.3,5.18,15.12,15.12,0,0,0-4.31,10l-.11,1.85h70.11l-.11-1.85a15.19,15.19,0,0,0-4.31-10,25.3,25.3,0,0,0-8.25-5.18c-2.91-1.25-5.76-2.27-8-3.38s-3.46-2.14-4-3.49c-.19-2.3-.17-4.1-.16-6.27a7.81,7.81,0,0,0,.77-.71,16,16,0,0,0,1.36-2.35,19.35,19.35,0,0,0,1.58-5.18c.55-.28,1.13-.35,1.58-.93a9.34,9.34,0,0,0,1.69-4.74,5.18,5.18,0,0,0-1.2-4.14,32.85,32.85,0,0,0,1.58-11.84,13.75,13.75,0,0,0-2.35-7.09,10.32,10.32,0,0,0-6.44-3.87c-1.83-2.38-5.14-3.27-9-3.27Zm.05,3.49h.05c3.52,0,5.8,1,6.44,2.18l.44.71.82.11a6.55,6.55,0,0,1,4.8,2.67,10.57,10.57,0,0,1,1.69,5.34,32.36,32.36,0,0,1-1.64,11.35l-.44,1.36,1.2.71a2.11,2.11,0,0,1,.49,1.91,6.21,6.21,0,0,1-.93,3c-.31.4-.48.38-.49.38l-1.47.11-.16,1.42a15.7,15.7,0,0,1-1.47,4.8,12.34,12.34,0,0,1-1,1.8c-.32.44-.66.69-.49.6l-.93.49v1a74,74,0,0,0,.16,7.53v.22l.11.22c1,2.68,3.3,4.35,5.84,5.62s5.45,2.2,8.19,3.38a22.18,22.18,0,0,1,7.1,4.47,11.34,11.34,0,0,1,2.9,5.95H330a11.3,11.3,0,0,1,2.89-5.95,22.42,22.42,0,0,1,7.15-4.47c2.75-1.18,5.64-2.11,8.19-3.38s4.9-2.94,5.9-5.62l.05-.22.06-.22a73.46,73.46,0,0,0,.16-7.53v-1l-.93-.49c.16.08-.22-.16-.55-.6a12.34,12.34,0,0,1-1.09-1.8,15.21,15.21,0,0,1-1.47-4.8l-.16-1.42-1.47-.11s-.18,0-.49-.38a6.23,6.23,0,0,1-.93-3,2.11,2.11,0,0,1,.49-1.91l1.15-.71-.33-1.25c-1.64-6.32-1.93-12.07-.22-16S353.63,1887.64,360.89,1887.49Z"/></clipPath><clipPath id="clip-path-2" transform="translate(-321 -1879)"><rect class="cls-2" width="1440" height="3201"/></clipPath></defs><title>Asset 1</title><g id="Layer_2" data-name="Layer 2"><g id="Layer_1-2" data-name="Layer 1"><g class="cls-3"><g class="cls-4"><rect class="cls-5" width="80.11" height="84.34"/></g></g></g></g></svg>