<svg xmlns="http://www.w3.org/2000/svg" xmlns:xlink="http://www.w3.org/1999/xlink" viewBox="0 0 83.82 88"><defs><style>.cls-1{fill:none;}.cls-2{clip-path:url(#clip-path);}.cls-3{clip-path:url(#clip-path-2);}.cls-4{fill:#39CB7A;}</style><clipPath id="clip-path" transform="translate(-676 -1878)"><path class="cls-1" d="M703.5,1917.66l2.38,7.74h-4.77Zm14.41-4.13H723a1.67,1.67,0,0,1,1.7,1.7v5.09a1.67,1.67,0,0,1-1.7,1.7h-5.09Zm-2-3.39a1.7,1.7,0,0,0-1.38,1.7v11.55a1.69,1.69,0,0,0,0,.69v8.11a1.7,1.7,0,1,0,3.39,0v-6.78H723a5.11,5.11,0,0,0,5.09-5.09v-5.09a5.11,5.11,0,0,0-5.09-5.09h-7.1Zm-12.61,0a1.7,1.7,0,0,0-1.43,1.22l-5.93,19.29a1.7,1.7,0,0,0-.05.53v1a1.7,1.7,0,1,0,3.39,0v-.69l.85-2.7h6.78l.85,2.7v.69a1.7,1.7,0,1,0,3.39,0v-1a1.7,1.7,0,0,0-.05-.53l-5.93-19.29A1.7,1.7,0,0,0,703.28,1910.13Zm31.42-.05-.21.05H733a1.7,1.7,0,0,0,.16,3.39v17H733a1.7,1.7,0,0,0,.16,3.39h3.39a1.7,1.7,0,1,0,0-3.39v-17a1.7,1.7,0,1,0,0-3.39h-1.38A1.7,1.7,0,0,0,734.71,1910.08Zm-22.2-23.69h10.81l1,4.77.21,1.06,1,.27a30.39,30.39,0,0,1,14.2,8.16l.74.79,1.06-.37,4.56-1.54,5.4,9.33-3.66,3.23-.79.69.26,1a29.51,29.51,0,0,1,0,16.43l-.26,1,.79.69,3.66,3.23-5.4,9.33-4.61-1.54-1-.37-.74.79a30.38,30.38,0,0,1-14.2,8.16l-1,.27-.21,1.06-1,4.77H712.5l-1-4.77-.21-1.06-1-.27a30.39,30.39,0,0,1-14.2-8.16l-.74-.79-1.06.37-4.56,1.54-5.4-9.33,3.66-3.23.79-.69-.26-1a29.51,29.51,0,0,1,0-16.43l.26-1-.79-.69-3.66-3.23,5.4-9.33,4.61,1.54,1,.37.74-.79a30.38,30.38,0,0,1,14.2-8.16l1-.27.21-1.06Zm0-3.39a3.4,3.4,0,0,0-3.34,2.7l-.79,4a33.63,33.63,0,0,0-13.83,7.9l-3.71-1.27a3.4,3.4,0,0,0-4,1.54l-5.4,9.33a3.4,3.4,0,0,0,.69,4.24l3,2.65a28.94,28.94,0,0,0,0,15.9l-3,2.65a3.41,3.41,0,0,0-.69,4.24l5.35,9.33a3.42,3.42,0,0,0,4,1.54l3.71-1.27a33.66,33.66,0,0,0,13.83,7.9l.79,4a3.41,3.41,0,0,0,3.34,2.7h10.81a3.4,3.4,0,0,0,3.34-2.7l.79-4a33.63,33.63,0,0,0,13.83-7.9l3.71,1.27a3.4,3.4,0,0,0,4-1.54l5.4-9.33a3.41,3.41,0,0,0-.69-4.24l-3-2.65a28.94,28.94,0,0,0,0-15.9l3-2.65a3.41,3.41,0,0,0,.69-4.24l-5.35-9.33a3.42,3.42,0,0,0-4-1.54l-3.71,1.27a33.66,33.66,0,0,0-13.83-7.9l-.79-4a3.41,3.41,0,0,0-3.34-2.7Z"/></clipPath><clipPath id="clip-path-2" transform="translate(-676 -1878)"><rect class="cls-1" width="1440" height="3201"/></clipPath></defs><title>Asset 2</title><g id="Layer_2" data-name="Layer 2"><g id="Layer_1-2" data-name="Layer 1"><g class="cls-2"><g class="cls-3"><rect class="cls-4" width="83.82" height="88"/></g></g></g></g></svg>