<svg xmlns="http://www.w3.org/2000/svg" xmlns:xlink="http://www.w3.org/1999/xlink" viewBox="0 0 88 88"><defs><style>.cls-1{fill:none;}.cls-2{clip-path:url(#clip-path);}.cls-3{clip-path:url(#clip-path-2);}.cls-4{fill:#bccbd6;}</style><clipPath id="clip-path" transform="translate(-318 -2120)"><path class="cls-1" d="M362,2143.72a20.06,20.06,0,0,1,18.43,12.48h-3.36a17.21,17.21,0,1,0,0,15.6h3.41A20.06,20.06,0,0,1,362,2184.28a20.28,20.28,0,0,1,0-40.56Zm0-3.12a23.4,23.4,0,1,0,22.42,30.08,1.56,1.56,0,0,0-1.51-2h-6.73a1.56,1.56,0,0,0-1.41.93,14.25,14.25,0,0,1-12.92,8.43,14,14,0,1,1,12.92-19.65,1.56,1.56,0,0,0,1.41.93h6.73a1.56,1.56,0,0,0,1.51-2A23.4,23.4,0,0,0,362,2140.6Zm0-12.48A35.88,35.88,0,1,1,326.12,2164,35.86,35.86,0,0,1,362,2128.12Zm0-3.12a39,39,0,1,0,39,39A39,39,0,0,0,362,2125Z"/></clipPath><clipPath id="clip-path-2" transform="translate(-318 -2120)"><rect class="cls-1" width="1440" height="3201"/></clipPath></defs><title>Asset 4</title><g id="Layer_2" data-name="Layer 2"><g id="Layer_1-2" data-name="Layer 1"><g class="cls-2"><g class="cls-3"><rect class="cls-4" width="88" height="88"/></g></g></g></g></svg>