<svg xmlns="http://www.w3.org/2000/svg" xmlns:xlink="http://www.w3.org/1999/xlink" viewBox="0 0 90 90"><defs><style>.cls-1{fill:none;}.cls-2{clip-path:url(#clip-path);}.cls-3{clip-path:url(#clip-path-2);}.cls-4{fill:#39CB7A;}</style><clipPath id="clip-path" transform="translate(-672 -2120)"><path class="cls-1" d="M703.47,2171.52l-1.3,6,.27.16,4.51-4.08Zm25.22-1.63-2.17,1.2,2.34,5.65a1.84,1.84,0,0,0,2.55.92,1.81,1.81,0,0,0,.65-2.61Zm-1.79-4.46-3.1,1.63,2.28,3.53,2.45-1.31Zm-.71-2.77c.38.69.75,1.36,1.09,2,0,.07.23.4.27.49l1.52,3.64h3.75v-6.14Zm-12.12,0-3.53,6.14h13.53l-.87-1.36c-.06-.09-.18-.36-.22-.44-.72-1.32-1.48-2.83-2.23-4.35Zm-12.55,0v6.14h2.72l3.53-6.14Zm9.62-4.46-7.39,12.88,3.48,2,7.45-12.88Zm2.07-3.59-1.79,3.15,3.48,2.07,1.85-3.15Zm2.34-1.47a2,2,0,0,0-2,1l3.48,2a2,2,0,0,0-.71-2.77A2,2,0,0,0,715.53,2153.15Zm.38-5.22a.71.71,0,0,0-.27.05.77.77,0,0,0-.33,1c1.11,2.61,5,11.63,8.26,17.66l3.1-1.63c-3.12-6-8.55-14.39-10.05-16.74A.72.72,0,0,0,715.91,2147.94Zm1.09-7.28A24.35,24.35,0,1,1,692.65,2165,24.32,24.32,0,0,1,717,2140.65Zm0-3.48A27.83,27.83,0,1,0,744.83,2165,27.85,27.85,0,0,0,717,2137.17Zm-21.79-8.7h43.59a14.71,14.71,0,0,1,14.73,14.73v43.59a14.71,14.71,0,0,1-14.73,14.73H695.21a14.71,14.71,0,0,1-14.73-14.73v-43.59A14.71,14.71,0,0,1,695.21,2128.48Zm0-3.48A18.24,18.24,0,0,0,677,2143.21v43.59A18.24,18.24,0,0,0,695.21,2205h43.59A18.24,18.24,0,0,0,757,2186.79v-43.59A18.24,18.24,0,0,0,738.79,2125Z"/></clipPath><clipPath id="clip-path-2" transform="translate(-672 -2120)"><rect class="cls-1" width="1440" height="3201"/></clipPath></defs><title>Asset 5</title><g id="Layer_2" data-name="Layer 2"><g id="Layer_1-2" data-name="Layer 1"><g class="cls-2"><g class="cls-3"><rect class="cls-4" width="90" height="90"/></g></g></g></g></svg>