<?xml version="1.0" encoding="utf-8"?>
<svg version="1.1" id="Layer_1" xmlns="http://www.w3.org/2000/svg" xmlns:xlink="http://www.w3.org/1999/xlink" x="0px" y="0px"
	 viewBox="0 0 50 50" style="enable-background:new 0 0 50 50;" xml:space="preserve">
<style type="text/css">
	.st0{fill:#BCCBD6;}
</style>
<path class="st0" d="M5,0C3.5,0,2.2,0.9,1.3,2.2S0,5.2,0,7s0.5,3.5,1.3,4.8S3.5,14,5,14h3v27c0,5.4,3.4,9,7,9h30c0,0,0.1,0,0.1,0
	c0,0,0,0,0,0c0.1,0,0.1,0,0.2,0c1.4-0.1,2.6-1,3.4-2.2c0.9-1.3,1.3-2.9,1.3-4.8s-0.5-3.5-1.3-4.8S46.5,36,45,36h-5v-8.8
	c0-0.1,0-0.1,0-0.2V13c0-0.1,0-0.1,0-0.2V9c0-5.4-3.4-9-7-9H5z M5,2h24.6c-0.1,0.1-0.2,0.1-0.2,0.2C28.5,3.5,28,5.2,28,7
	s0.5,3.5,1.3,4.8c0.1,0.1,0.2,0.1,0.2,0.2H9.2c-0.1,0-0.2,0-0.3,0c0,0-0.1,0-0.1,0H5c-0.7,0-1.4-0.4-2-1.3S2,8.5,2,7s0.4-2.8,1-3.7
	S4.3,2,5,2z M33,2C33,2,33,2,33,2c2.2,0,5,2.4,5,7v3.8c0,0.1,0,0.1,0,0.2v14c0,0,0,0.1,0,0.1v9.4c-0.1,0.3-0.1,0.6,0,0.9V41
	c0,3,1,5.4,2.6,7H15c-2.2,0-5-2.4-5-7V14h23v-2c-0.7,0-1.4-0.4-2-1.3S30,8.5,30,7s0.4-2.8,1-3.7C31.6,2.4,32.3,2,33,2z M14.7,21
	c-0.6,0.1-0.9,0.6-0.9,1.1s0.6,0.9,1.1,0.9h2c0.6,0,1-0.4,1-1s-0.4-1-1-1c0,0,0,0,0,0h-2c0,0-0.1,0-0.1,0C14.9,21,14.8,21,14.7,21
	C14.8,21,14.7,21,14.7,21z M20.7,21c-0.6,0.1-0.9,0.6-0.9,1.1s0.6,0.9,1.1,0.9h12c0.6,0,1-0.4,1-1c0-0.6-0.4-1-1-1c0,0,0,0,0,0H21
	c0,0-0.1,0-0.1,0C20.9,21,20.8,21,20.7,21C20.8,21,20.7,21,20.7,21z M14.7,27c-0.6,0.1-0.9,0.6-0.9,1.1s0.6,0.9,1.1,0.9l0,0h2
	c0.6,0,1-0.4,1-1s-0.4-1-1-1c0,0,0,0,0,0h-2c0,0-0.1,0-0.1,0C14.9,27,14.8,27,14.7,27C14.8,27,14.7,27,14.7,27z M20.7,27
	c-0.6,0.1-0.9,0.6-0.9,1.1s0.6,0.9,1.1,0.9l0,0h12c0.6,0,1-0.4,1-1c0-0.6-0.4-1-1-1c0,0,0,0,0,0H21c0,0-0.1,0-0.1,0
	C20.9,27,20.8,27,20.7,27C20.8,27,20.7,27,20.7,27z M14.7,33c-0.6,0.1-0.9,0.6-0.9,1.1s0.6,0.9,1.1,0.9h2c0.6,0,1-0.4,1-1
	c0-0.6-0.4-1-1-1c0,0,0,0,0,0h-2c0,0-0.1,0-0.1,0C14.9,33,14.8,33,14.7,33C14.8,33,14.7,33,14.7,33z M20.7,33
	c-0.6,0.1-0.9,0.6-0.9,1.1s0.6,0.9,1.1,0.9h12c0.6,0,1-0.4,1-1c0-0.6-0.4-1-1-1c0,0,0,0,0,0H21c0,0-0.1,0-0.1,0
	C20.9,33,20.8,33,20.7,33C20.8,33,20.7,33,20.7,33z M40,38h5c0.7,0,1.4,0.4,2,1.3s1,2.2,1,3.7s-0.4,2.8-1,3.7
	c-0.6,0.9-1.3,1.3-1.9,1.3c0,0,0,0-0.1,0c-2.2,0-5-2.4-5-7V38z M14.7,39c-0.6,0.1-0.9,0.6-0.9,1.1s0.6,0.9,1.1,0.9h2
	c0.6,0,1-0.4,1-1c0-0.6-0.4-1-1-1c0,0,0,0,0,0h-2c0,0-0.1,0-0.1,0C14.9,39,14.8,39,14.7,39C14.8,39,14.7,39,14.7,39z M20.7,39
	c-0.6,0.1-0.9,0.6-0.9,1.1s0.6,0.9,1.1,0.9h12c0.6,0,1-0.4,1-1c0-0.6-0.4-1-1-1c0,0,0,0,0,0H21c0,0-0.1,0-0.1,0
	C20.9,39,20.8,39,20.7,39C20.8,39,20.7,39,20.7,39z"/>
</svg>
