<svg xmlns="http://www.w3.org/2000/svg" xmlns:xlink="http://www.w3.org/1999/xlink" viewBox="0 0 38 38"><defs><style>.cls-1{fill:none;}.cls-2{clip-path:url(#clip-path);}.cls-3{clip-path:url(#clip-path-2);}.cls-4{fill:#bccbd6;}</style><clipPath id="clip-path" transform="translate(-1148 -541)"><path class="cls-1" d="M1164.55,566.14l0,.08a.61.61,0,0,0,1,.3l6.09-6.09a.61.61,0,0,0,0-.88l-6.09-6.09a.62.62,0,0,0-.87.88l5.65,5.65-5.65,5.65A.61.61,0,0,0,1164.55,566.14ZM1154.22,560A12.78,12.78,0,1,1,1167,572.78,12.77,12.77,0,0,1,1154.22,560Zm-1.22,0a14,14,0,1,0,14-14A14,14,0,0,0,1153,560Z"/></clipPath><clipPath id="clip-path-2" transform="translate(-1148 -541)"><rect class="cls-1" width="1440" height="3441"/></clipPath></defs><title>Asset 5</title><g id="Layer_2" data-name="Layer 2"><g id="Layer_1-2" data-name="Layer 1"><g class="cls-2"><g class="cls-3"><rect class="cls-4" width="38" height="38"/></g></g></g></g></svg>