<svg xmlns="http://www.w3.org/2000/svg" xmlns:xlink="http://www.w3.org/1999/xlink" viewBox="0 0 32 30.52"><defs><style>.cls-1{fill:none;}.cls-2{clip-path:url(#clip-path);}.cls-3{clip-path:url(#clip-path-2);}.cls-4{fill:#2196f3;}</style><clipPath id="clip-path" transform="translate(-1041 -1438)"><path class="cls-1" d="M1064.33,1443a3.64,3.64,0,0,0-2.59,1.06l-10.39,10.41-.1.1-.1.1a2.62,2.62,0,0,0,3.8,3.6l7.91-7.92a.52.52,0,1,0-.74-.74l-7.91,7.9a1.57,1.57,0,0,1-2.23,0,1.55,1.55,0,0,1,0-2.14l0-.07.08-.07,10.43-10.42a2.6,2.6,0,1,1,3.68,3.68l-12.9,12.9a3.66,3.66,0,0,1-5.17-5.17l10.31-10.31a.52.52,0,1,0-.74-.74l-10.31,10.31a4.7,4.7,0,1,0,6.65,6.66l12.91-12.9a3.66,3.66,0,0,0-2.6-6.25Z"/></clipPath><clipPath id="clip-path-2" transform="translate(-1041 -1438)"><rect class="cls-1" width="1440" height="3441"/></clipPath></defs><title>Asset 3</title><g id="Layer_2" data-name="Layer 2"><g id="Layer_1-2" data-name="Layer 1"><g class="cls-2"><g class="cls-3"><rect class="cls-4" width="32" height="30.52"/></g></g></g></g></svg>