<svg xmlns="http://www.w3.org/2000/svg" xmlns:xlink="http://www.w3.org/1999/xlink" viewBox="0 0 46 56"><defs><style>.cls-1{fill:none;}.cls-2{isolation:isolate;}.cls-3{clip-path:url(#clip-path);}.cls-4{clip-path:url(#clip-path-2);}.cls-5{fill:#bccbd6;}</style><clipPath id="clip-path" transform="translate(-581 -1519)"><path class="cls-1" d="M607.54,1550.66l4.38,5.37-3.92.05-2.2-3Zm-7.42-2,3.63,5v0l1.76,2.4H594.65Zm0-2.69a1,1,0,0,0-.84.4l-7.46,10.08a1,1,0,0,0,.8,1.59h14.84L614,1558a1,1,0,0,0,.76-1.63l-6.51-8a1,1,0,0,0-1.58,0l-2.13,2.93-3.62-5A1,1,0,0,0,600.17,1546Zm12.33-2.67a1.92,1.92,0,0,0-1.34.54,1.81,1.81,0,0,0-.55,1.3,1.89,1.89,0,0,0,3.78,0,1.81,1.81,0,0,0-.55-1.3A1.92,1.92,0,0,0,612.5,1543.33Zm-3.5-15.94,9.73,9.61H609ZM588,1526h19v13h13v29H588Zm-2-2v46h36v-32.59L608.41,1524Z"/></clipPath><clipPath id="clip-path-2" transform="translate(-581 -1519)"><rect class="cls-1" width="1440" height="3211"/></clipPath></defs><title>Asset 4</title><g id="Layer_2" data-name="Layer 2"><g id="Layer_1-2" data-name="Layer 1"><g class="cls-2"><g class="cls-3"><g class="cls-4"><rect class="cls-5" width="46" height="56"/></g></g></g></g></g></svg>