<?xml version="1.0" encoding="UTF-8"?>
<svg width="22px" height="21px" viewBox="0 0 22 21" version="1.1" xmlns="http://www.w3.org/2000/svg" xmlns:xlink="http://www.w3.org/1999/xlink">
    <!-- Generator: Sketch 42 (36781) - http://www.bohemiancoding.com/sketch -->
    <title>Shape</title>
    <desc>Created with Sketch.</desc>
    <defs></defs>
    <g id="Welcome" stroke="none" stroke-width="1" fill="none" fill-rule="evenodd">
        <g id="Edit-Article" transform="translate(-510.000000, -570.000000)" fill-rule="nonzero" fill="#FFFFFF">
            <path d="M528.329946,570 C527.392453,570.000072 526.455846,570.35169 525.744005,571.063836 L515.351141,581.473067 C515.314194,581.501297 515.28117,581.53432 515.25294,581.571267 C515.241552,581.581691 515.23063,581.592613 515.220207,581.604001 C515.196495,581.623848 515.174587,581.645756 515.15474,581.669468 C515.154655,581.674923 515.154655,581.680379 515.15474,581.685835 C514.244078,582.709219 514.272766,584.289971 515.25294,585.270145 C516.268999,586.286855 517.93576,586.286855 518.951818,585.270145 L526.856941,577.348655 C527.011996,577.198711 527.059278,576.969046 526.976061,576.770048 C526.892843,576.57105 526.696145,576.443413 526.480507,576.448486 C526.343707,576.453888 526.21446,576.512637 526.120439,576.612153 L518.215316,584.517276 C517.599416,585.133571 516.605342,585.133571 515.989443,584.517276 C515.393634,583.921468 515.383123,582.99158 515.940342,582.373237 C515.958391,582.352728 515.974808,582.330839 515.989443,582.30777 C516.000831,582.297346 516.011753,582.286424 516.022176,582.275036 L516.071276,582.242303 C516.071361,582.236848 516.071361,582.231391 516.071276,582.225936 L526.496874,571.816705 C527.520079,570.793062 529.155108,570.792429 530.179384,571.816705 C531.202676,572.840435 531.202547,574.476054 530.179384,575.499216 L517.282413,588.396188 C515.851226,589.827374 513.542274,589.827471 512.110531,588.396188 C510.678932,586.965048 510.679423,584.655413 512.110531,583.224306 L522.421562,572.913275 C522.577726,572.787432 522.648321,572.583464 522.603361,572.38801 C522.5584,572.192556 522.405779,572.039934 522.210325,571.994974 C522.01487,571.950014 521.810903,572.020609 521.685059,572.176773 L511.374029,582.487804 C509.542268,584.319564 509.541712,587.317328 511.374029,589.149057 C513.206202,590.980642 516.187234,590.980738 518.018915,589.149057 L530.932253,576.252085 C532.35598,574.828358 532.355851,572.488044 530.932253,571.063836 C530.219899,570.351482 529.267438,569.999928 528.329946,570 Z" id="Shape"></path>
        </g>
    </g>
</svg>