<svg xmlns="http://www.w3.org/2000/svg" xmlns:xlink="http://www.w3.org/1999/xlink" viewBox="0 0 38 38"><defs><style>.cls-1{fill:none;}.cls-2{isolation:isolate;}.cls-3{clip-path:url(#clip-path);}.cls-4{clip-path:url(#clip-path-2);}.cls-5{fill:#ff7182;}</style><clipPath id="clip-path" transform="translate(-458 -1529)"><path class="cls-1" d="M471.53,1541.94l-.08,0a.64.64,0,0,0-.32,1.09l5,5-5,5a.65.65,0,1,0,.91.91l5-5,5,5a.65.65,0,1,0,.91-.91l-5-5,5-5a.65.65,0,0,0-.91-.91l-5,5-5-5A.64.64,0,0,0,471.53,1541.94Zm5.47-6.66A12.73,12.73,0,1,1,464.27,1548,12.72,12.72,0,0,1,477,1535.27Zm0-1.27a14,14,0,1,0,14,14A14,14,0,0,0,477,1534Z"/></clipPath><clipPath id="clip-path-2" transform="translate(-458 -1529)"><rect class="cls-1" width="1440" height="3211"/></clipPath></defs><title>Asset 3</title><g id="Layer_2" data-name="Layer 2"><g id="Layer_1-2" data-name="Layer 1"><g class="cls-2"><g class="cls-3"><g class="cls-4"><rect class="cls-5" width="38" height="38"/></g></g></g></g></g></svg>