<svg xmlns="http://www.w3.org/2000/svg" xmlns:xlink="http://www.w3.org/1999/xlink" viewBox="0 0 22 13.17"><defs><style>.cls-1,.cls-2{fill:none;}.cls-1{clip-rule:evenodd;}.cls-3{opacity:0.6;isolation:isolate;}.cls-4{clip-path:url(#clip-path);}.cls-5{clip-path:url(#clip-path-2);}</style><clipPath id="clip-path" transform="translate(0 -3.86)"><path class="cls-1" d="M8,10.44A1.55,1.55,0,0,0,6.5,8.86,1.59,1.59,0,0,0,6.5,12,1.55,1.55,0,0,0,8,10.44Zm4.5,0A1.5,1.5,0,1,0,11,12,1.55,1.55,0,0,0,12.5,10.44Zm1.5,0a1.5,1.5,0,1,0,1.5-1.58A1.55,1.55,0,0,0,14,10.44Z"/></clipPath><clipPath id="clip-path-2" transform="translate(0 -3.86)"><rect class="cls-2" x="0.29" width="20" height="21"/></clipPath></defs><title>Asset 1</title><g id="Layer_2" data-name="Layer 2"><g id="Layer_1-2" data-name="Layer 1"><g class="cls-3"><g class="cls-4"><g class="cls-5"><rect width="22" height="13.17"/></g></g></g></g></g></svg>