<svg xmlns="http://www.w3.org/2000/svg" xmlns:xlink="http://www.w3.org/1999/xlink" viewBox="0 0 31.99 32"><defs><style>.cls-1{fill:none;}.cls-2{isolation:isolate;}.cls-3{clip-path:url(#clip-path);}.cls-4{clip-path:url(#clip-path-2);}.cls-5{fill:#2196f3;}</style><clipPath id="clip-path" transform="translate(-1148 -1659)"><path class="cls-1" d="M1169.9,1665.93a.47.47,0,0,0-.28.15l-15.51,15.53a.47.47,0,0,0-.13.21l-1,3.59a.48.48,0,0,0,.58.58l3.59-1a.48.48,0,0,0,.21-.14l15.52-15.51a.48.48,0,0,0-.67-.69l-15.44,15.44-1.94-1.94,15.44-15.44a.48.48,0,0,0-.36-.82Zm2.76-1.93a2.32,2.32,0,0,0-1.64.69l-.39.39,3.29,3.29.39-.39a2.33,2.33,0,0,0-1.64-4Z"/></clipPath><clipPath id="clip-path-2" transform="translate(-1148 -1659)"><rect class="cls-1" width="1440" height="3211"/></clipPath></defs><title>Asset 2</title><g id="Layer_2" data-name="Layer 2"><g id="Layer_1-2" data-name="Layer 1"><g class="cls-2"><g class="cls-3"><g class="cls-4"><rect class="cls-5" width="31.99" height="32"/></g></g></g></g></g></svg>