<svg xmlns="http://www.w3.org/2000/svg" xmlns:xlink="http://www.w3.org/1999/xlink" viewBox="0 0 48.18 48.04"><defs><style>.cls-1{fill:none;}.cls-2{clip-path:url(#clip-path);}.cls-3{clip-path:url(#clip-path-2);}.cls-4{fill:#fff;}</style><clipPath id="clip-path" transform="translate(-1181.82 -3014.96)"><path class="cls-1" d="M1212,3029.09a14.57,14.57,0,0,1,3.82.57v2.47h-1.53a3.84,3.84,0,0,0-2.17.45,2.16,2.16,0,0,0-.88,1.83v3h4.44l-.53,3h-3.91v16h-3.82v-16h-2.29v-3h2.29v-3a6.55,6.55,0,0,1,1-3.92C1209.06,3029.62,1210.11,3029.09,1212,3029.09Zm-17.56-7.61h22.91a6.08,6.08,0,0,1,6.11,6.09v22.83a6.08,6.08,0,0,1-6.11,6.09h-4.58V3042h3.7l.12-.64.76-4.57.14-.88h-4.73v-1.52c0-.42,0-.45.19-.55a2.93,2.93,0,0,1,1.34-.21h3.05v-5.11l-.53-.17a17.58,17.58,0,0,0-4.82-.81,5.79,5.79,0,0,0-4.84,2,7.8,7.8,0,0,0-1.27,4.83v1.52h-2.29V3042h2.29v14.46h-11.45a6.08,6.08,0,0,1-6.11-6.09v-22.83A6.08,6.08,0,0,1,1194.46,3021.48Zm0-1.52a7.63,7.63,0,0,0-7.64,7.61v22.83a7.63,7.63,0,0,0,7.64,7.61h22.91a7.63,7.63,0,0,0,7.64-7.61v-22.83a7.63,7.63,0,0,0-7.64-7.61Z"/></clipPath><clipPath id="clip-path-2" transform="translate(-1181.82 -3014.96)"><rect class="cls-1" width="1440" height="3201"/></clipPath></defs><title>Asset 4</title><g id="Layer_2" data-name="Layer 2"><g id="Layer_1-2" data-name="Layer 1"><g class="cls-2"><g class="cls-3"><rect class="cls-4" width="48.18" height="48.04"/></g></g></g></g></svg>