<?xml version="1.0" encoding="UTF-8"?>
<svg width="23px" height="20px" viewBox="0 0 23 20" version="1.1" xmlns="http://www.w3.org/2000/svg" xmlns:xlink="http://www.w3.org/1999/xlink">
    <!-- Generator: Sketch 42 (36781) - http://www.bohemiancoding.com/sketch -->
    <title>Shape</title>
    <desc>Created with Sketch.</desc>
    <defs></defs>
    <g id="Welcome" stroke="none" stroke-width="1" fill="none" fill-rule="evenodd">
        <g id="Edit-Article" transform="translate(-748.000000, -572.000000)" fill-rule="nonzero" fill="#FFFFFF">
            <path d="M748,572 L748,586.878465 L748.928144,586.878465 L748.928144,572.928144 L768.92321,572.928144 L768.92321,572 L748,572 Z M749.859013,573.859013 L749.859013,588.738386 L760.553563,588.738386 L760.553563,587.808426 L750.788974,587.808426 L750.788974,586.868475 L756.743811,582.15964 C757.226877,582.580611 758.115698,583.355296 758.227753,583.452867 C758.936794,584.069728 759.688512,584.225715 760.170317,584.225715 C760.651745,584.225715 761.404046,584.070015 762.112882,583.452867 C762.663458,582.973869 768.076638,578.255263 769.38819,577.11206 L769.38819,585.018543 L770.318151,585.948504 L770.318151,585.018543 L770.318151,573.859013 L749.859013,573.859013 Z M750.788974,574.788974 L769.38819,574.788974 L769.38819,575.878772 C768.907608,576.29772 762.09422,582.237054 761.502595,582.751764 C760.982022,583.205001 760.452387,583.295754 760.170317,583.295754 C759.888751,583.295754 759.360018,583.203852 758.838947,582.750856 L758.838039,582.750856 C758.232023,582.223148 750.994977,575.915737 750.788974,575.73619 L750.788974,574.788974 Z M750.788974,576.969478 C751.576834,577.656164 753.913166,579.692842 756.030902,581.538455 L750.788974,585.68332 L750.788974,576.969478 Z M766.593767,584.549022 C766.404556,584.549071 766.23424,584.663758 766.163041,584.839063 C766.091843,585.014367 766.133959,585.215332 766.269552,585.347299 L768.730679,587.808426 L762.413484,587.808426 L762.413484,588.738386 L768.730679,588.738386 L766.269552,591.199513 C766.148081,591.316138 766.099148,591.48932 766.141628,591.652269 C766.184107,591.815218 766.311359,591.94247 766.474308,591.984949 C766.637257,592.027428 766.810439,591.978496 766.927064,591.857024 L770.510682,588.273406 L766.927064,584.689788 C766.839521,584.599799 766.719313,584.549029 766.593767,584.549022 Z" id="Shape"></path>
        </g>
    </g>
</svg>