<?xml version="1.0" encoding="UTF-8"?>
<svg width="23px" height="22px" viewBox="0 0 23 22" version="1.1" xmlns="http://www.w3.org/2000/svg" xmlns:xlink="http://www.w3.org/1999/xlink">
    <!-- Generator: Sketch 42 (36781) - http://www.bohemiancoding.com/sketch -->
    <title>Shape</title>
    <desc>Created with Sketch.</desc>
    <defs></defs>
    <g id="Welcome" stroke="none" stroke-width="1" fill="none" fill-rule="evenodd">
        <g id="Edit-Article" transform="translate(-1037.000000, -569.000000)" fill-rule="nonzero" fill="#FFFFFF">
            <path d="M1047.8125,582.3 C1048.2625,583.55 1047.9625,584.95 1047.0125,585.95 L1044.0125,588.95 C1043.3625,589.6 1042.4625,589.95 1041.5625,589.95 C1040.6125,589.95 1039.7625,589.6 1039.1125,588.95 C1037.7625,587.6 1037.7625,585.35 1039.1125,584 L1042.1125,581 C1042.7625,580.35 1043.6625,580 1044.5625,580 C1044.9625,580 1045.3625,580.05 1045.7125,580.2 L1046.4625,579.45 C1045.8625,579.15 1045.1625,579 1044.5125,579 C1043.3625,579 1042.2125,579.45 1041.3125,580.3 L1038.3125,583.3 C1036.5625,585.05 1036.5625,587.9 1038.3125,589.65 C1039.2125,590.55 1040.3625,591 1041.5125,591 C1042.6625,591 1043.8125,590.55 1044.7125,589.7 L1047.7125,586.7 C1049.1125,585.3 1049.3625,583.25 1048.5625,581.6 L1047.8125,582.3 Z M1057.7125,570.3 C1056.8125,569.45 1055.6625,569 1054.5125,569 C1053.3625,569 1052.2125,569.45 1051.3125,570.3 L1048.3125,573.3 C1046.9125,574.7 1046.6625,576.75 1047.4625,578.4 L1048.2125,577.65 C1047.7625,576.4 1048.0625,575 1049.0125,574 L1052.0125,571 C1052.6625,570.35 1053.5625,570 1054.4625,570 C1055.4125,570 1056.2625,570.35 1056.9125,571 C1058.2625,572.35 1058.2625,574.6 1056.9125,575.95 L1053.9125,578.95 C1053.2625,579.6 1052.3625,579.95 1051.4625,579.95 C1051.0625,579.95 1050.6625,579.9 1050.3125,579.75 L1049.5625,580.5 C1050.1625,580.8 1050.8125,580.95 1051.5125,580.95 C1052.6625,580.95 1053.8125,580.5 1054.7125,579.65 L1057.7125,576.65 C1059.4625,574.95 1059.4625,572.05 1057.7125,570.3 Z M1051.5625,576.45 C1051.4625,576.35 1051.3625,576.3 1051.2125,576.3 C1051.1125,576.3 1050.9625,576.35 1050.8625,576.45 L1044.5125,582.8 C1044.3125,583 1044.3125,583.3 1044.5125,583.5 C1044.6125,583.6 1044.7625,583.65 1044.8625,583.65 C1044.9625,583.65 1045.1125,583.6 1045.2125,583.5 L1051.5625,577.15 C1051.7625,576.95 1051.7625,576.65 1051.5625,576.45 Z" id="Shape"></path>
        </g>
    </g>
</svg>