<svg xmlns="http://www.w3.org/2000/svg" xmlns:xlink="http://www.w3.org/1999/xlink" viewBox="0 0 48.18 48.04"><defs><style>.cls-1{fill:none;}.cls-2{clip-path:url(#clip-path);}.cls-3{clip-path:url(#clip-path-2);}.cls-4{fill:#fff;}</style><clipPath id="clip-path" transform="translate(-1013.84 -3014.96)"><path class="cls-1" d="M1034.11,3035.17h4.58v1.59a.76.76,0,0,0,1.43.36,3.24,3.24,0,0,1,.86-.93,5.15,5.15,0,0,1,3.29-1,5.51,5.51,0,0,1,4.13,1.66,7.25,7.25,0,0,1,1.74,5.18v9.13h-4.58V3042a4.63,4.63,0,0,0-.45-2.12,3.43,3.43,0,0,0-5.85-.1,4.43,4.43,0,0,0-.57,2.21v9.13h-4.58Zm-8.4,0h4.58v16h-4.58Zm7.49-1.52a.76.76,0,0,0-.62.76v17.5a.76.76,0,0,0,.76.76h6.11a.76.76,0,0,0,.76-.76V3042a3.31,3.31,0,0,1,.38-1.45,1.51,1.51,0,0,1,1.53-.83c1.07,0,1.38.38,1.62.86a3.42,3.42,0,0,1,.29,1.43v9.89a.76.76,0,0,0,.76.76h6.11a.76.76,0,0,0,.76-.76V3042a8.79,8.79,0,0,0-2.15-6.23,7.13,7.13,0,0,0-5.25-2.14,6.69,6.69,0,0,0-4.06,1.24v-.48a.76.76,0,0,0-.76-.76h-6.25Zm-8.4,0a.76.76,0,0,0-.62.76v17.5a.76.76,0,0,0,.76.76h6.11a.76.76,0,0,0,.76-.76v-17.5a.76.76,0,0,0-.76-.76h-6.25Zm3.2-6.09a2.1,2.1,0,1,1,0,4.18,2.08,2.08,0,0,1-2.29-2.14A2,2,0,0,1,1028,3027.57Zm0-1.52a3.65,3.65,0,0,0-3.82,3.57,3.82,3.82,0,0,0,7.64,0v0A3.72,3.72,0,0,0,1028,3026Zm-1.53-4.57h22.91a6.05,6.05,0,0,1,6.11,6.09v22.83a6.05,6.05,0,0,1-6.11,6.09h-22.91a6.05,6.05,0,0,1-6.11-6.09v-22.83A6.05,6.05,0,0,1,1026.48,3021.48Zm0-1.52a7.61,7.61,0,0,0-7.64,7.61v22.83a7.61,7.61,0,0,0,7.64,7.61h22.91a7.61,7.61,0,0,0,7.64-7.61v-22.83a7.61,7.61,0,0,0-7.64-7.61Z"/></clipPath><clipPath id="clip-path-2" transform="translate(-1013.84 -3014.96)"><rect class="cls-1" width="1440" height="3201"/></clipPath></defs><title>Asset 5</title><g id="Layer_2" data-name="Layer 2"><g id="Layer_1-2" data-name="Layer 1"><g class="cls-2"><g class="cls-3"><rect class="cls-4" width="48.18" height="48.04"/></g></g></g></g></svg>