<svg xmlns="http://www.w3.org/2000/svg" xmlns:xlink="http://www.w3.org/1999/xlink" viewBox="0 0 35.05 35.02"><defs><style>.cls-1{fill:none;}.cls-2{isolation:isolate;}.cls-3{clip-path:url(#clip-path);}.cls-4{clip-path:url(#clip-path-2);}.cls-5{fill:#2196f3;}</style><clipPath id="clip-path" transform="translate(-1101 -2539)"><path class="cls-1" d="M1122.56,2552.47a.52.52,0,0,0-.4-.17.62.62,0,0,0-.4.17l-7.22,7.22a.55.55,0,0,0,0,.8.55.55,0,0,0,.8,0l7.22-7.22A.55.55,0,0,0,1122.56,2552.47Zm7-7a5.22,5.22,0,0,0-7.28,0l-3.41,3.41a5.06,5.06,0,0,0-1,5.8l.85-.85a4,4,0,0,1,.91-4.15l3.41-3.41a4,4,0,0,1,2.79-1.14,3.86,3.86,0,0,1,2.79,1.14,4,4,0,0,1,0,5.63l-3.41,3.41a4,4,0,0,1-2.79,1.14,3.34,3.34,0,0,1-1.31-.23l-.85.85a4.89,4.89,0,0,0,2.22.51,5.31,5.31,0,0,0,3.64-1.48l3.41-3.41A5.11,5.11,0,0,0,1129.56,2545.48Zm-11.26,13.65a4,4,0,0,1-.91,4.15l-3.41,3.41a4,4,0,0,1-2.79,1.14,3.86,3.86,0,0,1-2.79-1.14,4,4,0,0,1,0-5.63l3.41-3.41a4,4,0,0,1,2.79-1.14,3.34,3.34,0,0,1,1.31.23l.85-.85a5.06,5.06,0,0,0-2.22-.51,5.31,5.31,0,0,0-3.64,1.48l-3.41,3.41a5.15,5.15,0,0,0,3.64,8.76,5.32,5.32,0,0,0,3.64-1.48l3.41-3.41a5.06,5.06,0,0,0,1-5.8Z"/></clipPath><clipPath id="clip-path-2" transform="translate(-1101 -2539)"><rect class="cls-1" width="1440" height="3211"/></clipPath></defs><title>Asset 3</title><g id="Layer_2" data-name="Layer 2"><g id="Layer_1-2" data-name="Layer 1"><g class="cls-2"><g class="cls-3"><g class="cls-4"><rect class="cls-5" width="35.05" height="35.02"/></g></g></g></g></g></svg>