<svg xmlns="http://www.w3.org/2000/svg" xmlns:xlink="http://www.w3.org/1999/xlink" viewBox="0 0 38 38"><defs><style>.cls-1{fill:none;}.cls-2{isolation:isolate;}.cls-3{clip-path:url(#clip-path);}.cls-4{clip-path:url(#clip-path-2);}.cls-5{fill:#2196f3;}</style><clipPath id="clip-path" transform="translate(-1056 -293)"><path class="cls-1" d="M1075,307.54a.64.64,0,0,0-.63.65v3.18h-3.18a.64.64,0,1,0,0,1.27h3.18v3.18a.64.64,0,1,0,1.27,0v-3.18h3.18a.64.64,0,1,0,0-1.27h-3.18v-3.18a.64.64,0,0,0-.65-.65Zm0-8.26A12.73,12.73,0,1,1,1062.27,312,12.72,12.72,0,0,1,1075,299.27Zm0-1.27a14,14,0,1,0,14,14A14,14,0,0,0,1075,298Z"/></clipPath><clipPath id="clip-path-2" transform="translate(-1056 -293)"><rect class="cls-1" width="1440" height="1050"/></clipPath></defs><title>Asset 2</title><g id="Layer_2" data-name="Layer 2"><g id="Layer_1-2" data-name="Layer 1"><g class="cls-2"><g class="cls-3"><g class="cls-4"><rect class="cls-5" width="38" height="38"/></g></g></g></g></g></svg>