<?xml version="1.0" encoding="utf-8"?>
<!-- Generator: Adobe Illustrator 21.0.2, SVG Export Plug-In . SVG Version: 6.00 Build 0)  -->
<svg version="1.1" id="Layer_1" xmlns="http://www.w3.org/2000/svg" xmlns:xlink="http://www.w3.org/1999/xlink" x="0px" y="0px"
	 viewBox="0 0 91.8 91.8" style="fill:#3696F0;" xml:space="preserve">
<path d="M90.9,86.7L66.5,62.3c5.8-6.8,9-15.4,9-24.5c0-10.1-3.9-19.6-11.1-26.7C57.3,3.9,47.9,0,37.8,0C27.7,0,18.2,3.9,11.1,11.1
	C3.9,18.2,0,27.7,0,37.8s3.9,19.6,11.1,26.7s16.6,11.1,26.7,11.1c9.1,0,17.7-3.2,24.5-9l24.4,24.4c0.6,0.6,1.4,0.9,2.1,0.9
	s1.5-0.3,2.1-0.9C92.1,89.8,92.1,87.9,90.9,86.7z M37.8,69.5c-8.5,0-16.5-3.3-22.5-9.3c-6-6-9.3-14-9.3-22.5s3.3-16.5,9.3-22.5
	c6-6,14-9.3,22.5-9.3c8.5,0,16.5,3.3,22.5,9.3c6,6,9.3,14,9.3,22.5s-3.3,16.5-9.3,22.5C54.2,66.2,46.3,69.5,37.8,69.5z"/>
</svg>
