<?xml version="1.0" encoding="UTF-8"?>
<svg width="25px" height="23px" viewBox="0 0 25 23" version="1.1" xmlns="http://www.w3.org/2000/svg" xmlns:xlink="http://www.w3.org/1999/xlink">
    <!-- Generator: Sketch 42 (36781) - http://www.bohemiancoding.com/sketch -->
    <title>Shape</title>
    <desc>Created with Sketch.</desc>
    <defs></defs>
    <g id="Welcome" stroke="none" stroke-width="1" fill="none" fill-rule="evenodd">
        <g id="Edit-Article" transform="translate(-271.000000, -568.000000)" fill-rule="nonzero" fill="#FFFFFF">
            <path d="M278.9488,568 L278.9488,568.489362 L278.9488,573.382979 L278.9488,573.87234 L279.4456,573.87234 L282.9232,573.87234 L282.9232,578.765957 L274.4776,578.765957 L273.9808,578.765957 L273.9808,579.255319 L273.9808,585.12766 L271.4968,585.12766 L271,585.12766 L271,585.617021 L271,590.510638 L271,591 L271.4968,591 L277.4584,591 L277.9552,591 L277.9552,590.510638 L277.9552,585.617021 L277.9552,585.12766 L277.4584,585.12766 L274.9744,585.12766 L274.9744,579.744681 L282.9232,579.744681 L282.9232,585.12766 L280.4392,585.12766 L279.9424,585.12766 L279.9424,585.617021 L279.9424,590.510638 L279.9424,591 L280.4392,591 L286.4008,591 L286.8976,591 L286.8976,590.510638 L286.8976,585.617021 L286.8976,585.12766 L286.4008,585.12766 L283.9168,585.12766 L283.9168,579.744681 L291.8656,579.744681 L291.8656,585.12766 L289.3816,585.12766 L288.8848,585.12766 L288.8848,585.617021 L288.8848,590.510638 L288.8848,591 L289.3816,591 L295.3432,591 L295.84,591 L295.84,590.510638 L295.84,585.617021 L295.84,585.12766 L295.3432,585.12766 L292.8592,585.12766 L292.8592,579.255319 L292.8592,578.765957 L292.3624,578.765957 L283.9168,578.765957 L283.9168,573.87234 L287.3944,573.87234 L287.8912,573.87234 L287.8912,573.382979 L287.8912,568.489362 L287.8912,568 L287.3944,568 L279.4456,568 L278.9488,568 Z M279.9424,568.978723 L286.8976,568.978723 L286.8976,572.893617 L283.528675,572.893617 C283.478066,572.880498 283.42567,572.875336 283.373425,572.878324 C283.357654,572.882663 283.34211,572.887767 283.32685,572.893617 L279.9424,572.893617 L279.9424,568.978723 Z M271.9936,586.106383 L274.38445,586.106383 L274.586275,586.106383 L276.9616,586.106383 L276.9616,590.021277 L271.9936,590.021277 L271.9936,586.106383 Z M280.936,586.106383 L285.904,586.106383 L285.904,590.021277 L280.936,590.021277 L280.936,586.106383 Z M289.8784,586.106383 L292.26925,586.106383 L292.471075,586.106383 L294.8464,586.106383 L294.8464,590.021277 L289.8784,590.021277 L289.8784,586.106383 Z" id="Shape"></path>
        </g>
    </g>
</svg>